<?xml version="1.0" encoding="UTF-8"?>
<svg id="Layer_2" data-name="Layer 2" xmlns="http://www.w3.org/2000/svg" viewBox="0 0 605.18 202.37">
  <defs>
    <style>
      .cls-1 {
        fill: #333;
      }
    </style>
  </defs>
  <g id="Layer_1-2" data-name="Layer 1">
    <g>
      <g>
        <path class="cls-1" d="M266.17,142.68h12.11l22.38,36.78h.18v-36.78h12.47v58.37h-11.59l-22.91-37.48h-.26v37.48h-12.38v-58.37Z"/>
        <path class="cls-1" d="M345.96,202.37c-3.69,0-6.86-.56-9.52-1.67-2.66-1.11-4.83-2.66-6.5-4.65-1.67-1.99-2.9-4.36-3.69-7.11-.79-2.75-1.19-5.76-1.19-9.04s.47-6.32,1.4-9.31c.94-2.98,2.33-5.6,4.17-7.86,1.84-2.25,4.14-4.07,6.89-5.44,2.75-1.37,5.91-2.06,9.48-2.06,4.39,0,7.91,1.1,10.58,3.29,2.66,2.19,3.99,5.4,3.99,9.61,0,3.28-.81,5.94-2.41,7.99-1.61,2.05-3.63,3.63-6.06,4.74-2.43,1.11-5.05,1.89-7.86,2.33-2.81,.44-5.38,.69-7.72,.75,.23,2.34,1.14,4.46,2.72,6.36,1.58,1.9,4.01,2.85,7.29,2.85,2.34,0,4.46-.42,6.36-1.27,1.9-.85,3.44-1.68,4.61-2.5l3.51,8.08c-.23,.23-.79,.61-1.67,1.14-.88,.53-2.01,1.07-3.38,1.62-1.38,.56-3,1.05-4.87,1.49-1.87,.44-3.92,.66-6.14,.66Zm-8.87-26.69c1.17,0,2.55-.12,4.13-.35,1.58-.23,3.07-.63,4.48-1.18,1.4-.56,2.6-1.3,3.6-2.24,.99-.94,1.49-2.11,1.49-3.51s-.41-2.5-1.23-3.29c-.82-.79-1.9-1.18-3.25-1.18-2.93,0-5.17,1.17-6.72,3.51-1.55,2.34-2.39,5.09-2.5,8.25Z"/>
        <path class="cls-1" d="M386.61,202.37c-3.28,0-5.88-.44-7.81-1.32s-3.38-2.05-4.34-3.51c-.97-1.46-1.58-3.13-1.84-5-.26-1.87-.39-3.8-.39-5.79v-46.7h12.29v16.5h11.5v9.57h-11.5v20.28c0,2.58,.53,4.33,1.58,5.27,1.05,.94,2.4,1.41,4.04,1.41,1.05,0,2.03-.18,2.94-.53,.91-.35,1.71-.73,2.41-1.14l2.9,7.9c-1.35,.88-3.09,1.61-5.22,2.19-2.14,.58-4.32,.88-6.54,.88Z"/>
        <path class="cls-1" d="M421.28,202.2c-4.92,0-8.69-1.27-11.32-3.82-2.63-2.55-3.95-6.45-3.95-11.72v-30.11h12.29v28.35c0,2.17,.25,4.02,.75,5.57,.5,1.55,1.92,2.33,4.26,2.33,1.93,0,3.5-.7,4.7-2.11,1.2-1.4,1.8-3.1,1.8-5.09v-29.06h12.2v28.44c0,2.05,.22,3.86,.66,5.44s1.83,2.37,4.17,2.37c1.58,0,2.87-.51,3.86-1.54,.99-1.02,1.77-2.31,2.33-3.86,.56-1.55,.92-3.31,1.1-5.27,.18-1.96,.26-3.85,.26-5.66,0-3.34-.31-6.77-.92-10.31-.61-3.54-1.3-6.74-2.06-9.61h12.03c.82,2.87,1.52,6.03,2.11,9.48,.58,3.45,.88,6.82,.88,10.09,0,8.02-1.6,14.37-4.78,19.05-3.19,4.68-8.03,7.02-14.53,7.02-3.22,0-5.76-.63-7.64-1.89-1.87-1.26-3.31-2.88-4.3-4.87-1.81,2.46-3.89,4.2-6.23,5.22-2.34,1.02-4.89,1.54-7.64,1.54Z"/>
        <path class="cls-1" d="M495.37,202.37c-5.97,0-10.73-1.93-14.26-5.79-3.54-3.86-5.31-9.74-5.31-17.64,0-4.56,.66-8.37,1.98-11.41,1.32-3.04,2.98-5.47,5-7.29,2.02-1.81,4.27-3.1,6.76-3.86,2.49-.76,4.9-1.14,7.24-1.14,1.64,0,3.6,.22,5.88,.66s4.43,1.4,6.45,2.9c2.02,1.49,3.74,3.73,5.18,6.72,1.43,2.98,2.15,7.02,2.15,12.11,0,4.16-.54,7.8-1.62,10.93-1.08,3.13-2.58,5.71-4.48,7.72-1.9,2.02-4.14,3.54-6.72,4.56-2.58,1.02-5.33,1.54-8.25,1.54Zm.7-8.95c2.75,0,4.74-1.29,5.97-3.86,1.23-2.57,1.84-6.09,1.84-10.53,0-4.68-.57-8.32-1.71-10.93-1.14-2.6-3.15-3.91-6.01-3.91-2.69,0-4.67,1.24-5.93,3.73-1.26,2.49-1.89,5.69-1.89,9.61,0,1.99,.09,3.94,.26,5.84,.18,1.9,.54,3.6,1.1,5.09,.56,1.49,1.35,2.69,2.37,3.6,1.02,.91,2.35,1.36,3.99,1.36Z"/>
        <path class="cls-1" d="M527.58,164.28l-.88-7.72h10.01l1.05,6.32c1.05-2.57,2.57-4.49,4.56-5.75,1.99-1.26,3.98-1.89,5.97-1.89,1.29,0,2.56,.15,3.82,.44,1.26,.29,2.35,.7,3.29,1.23l-1.93,10.27c-.94-.41-1.95-.78-3.03-1.1-1.08-.32-2.18-.48-3.29-.48-2.17,0-3.91,.72-5.22,2.15-1.32,1.43-2.01,3.32-2.06,5.66v27.65h-12.29v-36.78Z"/>
        <path class="cls-1" d="M563.84,140.05h12.2v24.75h.26c1.4-2.57,3.36-4.81,5.88-6.72,2.52-1.9,5.76-2.85,9.74-2.85s6.85,1.02,8.95,3.07c2.11,2.05,3.16,4.89,3.16,8.51,0,3.28-.82,6.31-2.46,9.09-1.64,2.78-4.07,5.08-7.29,6.89l10.88,18.26h-14.13l-8.25-14.75c-.64,.18-1.71,.32-3.2,.44-1.49,.12-2.68,.21-3.55,.26v14.05h-12.2v-61.01Zm12.11,39.24c5.44-.23,9.45-1.29,12.03-3.16,2.57-1.87,3.86-4.13,3.86-6.76,0-1.46-.44-2.59-1.32-3.38-.88-.79-2.14-1.18-3.77-1.18-2.87,0-5.33,1.42-7.37,4.26-2.05,2.84-3.19,6.25-3.42,10.23Z"/>
      </g>
      <g>
        <path class="cls-1" d="M37.4,130.57c-3.3,0-6.72-.22-10.27-.64-3.55-.43-7-.98-10.36-1.65-3.36-.67-6.51-1.47-9.44-2.38-2.93-.92-5.38-1.92-7.33-3.02V.41H25.66V38.91c2.32-1.95,5.25-3.57,8.8-4.86,3.54-1.28,7.52-1.93,11.92-1.93,11,0,19.74,3.82,26.21,11.46,6.48,7.64,9.72,18.79,9.72,33.46,0,17.85-3.91,31.23-11.73,40.15-7.82,8.92-18.88,13.38-33.18,13.38Zm1.1-17.97c5.87,0,10.39-2.59,13.57-7.79,3.18-5.19,4.77-13.35,4.77-24.47,0-3.54-.25-7.12-.73-10.72-.49-3.6-1.37-6.81-2.66-9.62-1.28-2.81-3.09-5.1-5.41-6.87-2.32-1.77-5.32-2.66-8.98-2.66s-6.66,1.1-9.35,3.3c-2.69,2.2-4.03,5.01-4.03,8.43v47.48c1.59,.86,3.54,1.56,5.87,2.11,2.32,.55,4.64,.82,6.97,.82Z"/>
        <path class="cls-1" d="M118.61,130.2c-10.15,0-17.78-2.72-22.91-8.16-5.13-5.44-7.7-13.59-7.7-24.47V34.88h25.66v58.66c0,5.01,.7,9.14,2.11,12.37,1.4,3.24,4.67,4.86,9.81,4.86,4.15,0,7.7-1.62,10.63-4.86,2.93-3.24,4.4-6.75,4.4-10.54V34.88h25.67V111.32l1.65,16.5h-21.63l-1.47-10.08h-.73c-3.06,4.28-6.78,7.43-11.18,9.44-4.4,2.02-9.17,3.02-14.3,3.02Z"/>
        <path class="cls-1" d="M212.28,176.58c-10.15,0-17.78-2.23-22.91-6.69-5.13-4.46-7.7-10.42-7.7-17.87,0-6.6,1.8-12.5,5.41-17.69,3.6-5.2,8.1-9.74,13.47-13.66-7.7-1.22-13.6-4.13-17.69-8.71-4.1-4.58-6.14-11.46-6.14-20.62V34.88h25.66v54.45c0,4.89,.64,8.89,1.93,12.01,1.28,3.12,4.92,4.67,10.91,4.67,3.67,0,6.93-1.37,9.81-4.12,2.87-2.75,4.31-6.44,4.31-11.09V34.88h25.66V112.42c0,1.47-.03,3.36-.09,5.68-.06,2.32-.15,4.68-.27,7.06-.12,2.38-.31,4.73-.55,7.06-.25,2.32-.49,4.22-.73,5.68-1.35,12.34-5.44,21.87-12.28,28.6-6.85,6.72-16.44,10.08-28.78,10.08Zm2.93-18.51c5.38,0,9.17-2.05,11.37-6.14,2.2-4.1,3.3-9.62,3.3-16.59v-17.42c-6.72,3.18-12.68,7.15-17.87,11.92-5.2,4.77-7.79,10.63-7.79,17.6,0,3.54,.98,6.2,2.93,7.97,1.95,1.77,4.64,2.66,8.07,2.66Z"/>
        <path class="cls-1" d="M296.06,130.75c-6.97,0-12.77-1.25-17.42-3.76-4.65-2.5-8.31-5.84-11-9.99-2.69-4.15-4.61-8.95-5.77-14.39-1.16-5.44-1.74-11.15-1.74-17.14,0-8.07,1.04-15.4,3.12-22,2.08-6.6,5.13-12.19,9.17-16.77,4.03-4.58,9.1-8.16,15.21-10.72,6.11-2.57,13.14-3.85,21.08-3.85,3.05,0,7.73,.49,14.02,1.47,6.29,.98,12.86,2.75,19.71,5.32V109.3l1.83,18.52h-21.81l-1.47-9.35-.73-.18c-2.45,3.67-5.68,6.66-9.72,8.98-4.03,2.32-8.86,3.48-14.48,3.48Zm5.87-18.7c4.89,0,8.64-1.4,11.27-4.22,2.63-2.81,3.94-5.93,3.94-9.35V52.48c-1.22-.49-2.87-.95-4.95-1.38-2.08-.43-4.28-.64-6.6-.64-3.79,0-6.97,.92-9.53,2.75-2.57,1.83-4.65,4.28-6.23,7.33-1.59,3.06-2.72,6.6-3.39,10.63-.67,4.03-1.01,8.31-1.01,12.83,0,3.67,.24,7.18,.73,10.54,.49,3.36,1.34,6.36,2.57,8.98,1.22,2.63,2.9,4.71,5.04,6.23,2.14,1.53,4.86,2.29,8.16,2.29Z"/>
        <path class="cls-1" d="M353.07,52.11l-1.83-17.23h21.08l2.02,10.82c2.93-4.15,6.54-7.45,10.82-9.9,4.28-2.44,9.35-3.67,15.22-3.67s10.54,1.1,14.76,3.3c4.22,2.2,7.61,5.62,10.17,10.27,2.69-4.28,6.23-7.61,10.63-9.99,4.4-2.38,9.53-3.58,15.4-3.58,9.17,0,16.32,2.69,21.45,8.07,5.13,5.38,7.7,13.5,7.7,24.38v63.24h-25.66v-58.48c0-4.89-.67-9.01-2.02-12.37-1.35-3.36-4.52-5.04-9.53-5.04-4.4,0-7.79,1.56-10.17,4.67-2.38,3.12-3.57,6.87-3.57,11.27v59.95h-25.66v-58.48c0-4.52-.58-8.55-1.74-12.1-1.16-3.54-4.37-5.32-9.62-5.32-4.52,0-7.97,1.62-10.36,4.86-2.38,3.24-3.57,7.12-3.57,11.64v59.4h-25.48V52.11Z"/>
        <rect class="cls-1" x="489.09" y="34.88" width="25.85" height="92.94"/>
        <path class="cls-1" d="M556.01,130.75c-6.97,0-12.77-1.25-17.42-3.76-4.65-2.5-8.31-5.84-11-9.99-2.69-4.15-4.61-8.95-5.77-14.39-1.16-5.44-1.74-11.15-1.74-17.14,0-8.07,1.04-15.4,3.12-22,2.08-6.6,5.13-12.19,9.17-16.77,4.03-4.58,9.1-8.16,15.21-10.72,6.11-2.57,13.14-3.85,21.08-3.85,3.05,0,7.73,.49,14.02,1.47,6.29,.98,12.86,2.75,19.71,5.32V109.3l1.83,18.52h-21.81l-1.47-9.35-.73-.18c-2.45,3.67-5.68,6.66-9.72,8.98-4.03,2.32-8.86,3.48-14.48,3.48Zm5.87-18.7c4.89,0,8.64-1.4,11.27-4.22,2.63-2.81,3.94-5.93,3.94-9.35V52.48c-1.22-.49-2.87-.95-4.95-1.38-2.08-.43-4.28-.64-6.6-.64-3.79,0-6.97,.92-9.53,2.75-2.57,1.83-4.65,4.28-6.23,7.33-1.59,3.06-2.72,6.6-3.39,10.63-.67,4.03-1.01,8.31-1.01,12.83,0,3.67,.24,7.18,.73,10.54,.49,3.36,1.34,6.36,2.57,8.98,1.22,2.63,2.9,4.71,5.04,6.23,2.14,1.53,4.86,2.29,8.16,2.29Z"/>
      </g>
      <g>
        <path class="cls-1" d="M502.08,25.58c-.84,0-1.49-.23-1.94-.7-.46-.47-.68-1.08-.68-1.85,0-.69,.23-1.28,.68-1.76,.46-.48,1.07-.72,1.83-.72,.84,0,1.48,.22,1.94,.67,.46,.44,.68,1.04,.68,1.77s-.22,1.36-.65,1.85c-.43,.49-1.05,.74-1.87,.74Z"/>
        <path class="cls-1" d="M518.79,25.47c-3.33,0-5.98-1.06-7.97-3.18-1.98-2.12-2.98-5.26-2.98-9.43,0-2.39,.33-4.41,1-6.06,.67-1.65,1.52-2.98,2.57-3.97,1.05-1,2.24-1.72,3.57-2.16s2.65-.67,3.96-.67c1.55,0,3.09,.34,4.6,1.02,1.52,.68,2.82,1.85,3.9,3.53l-3.18,2.33c-.76-.99-1.59-1.74-2.48-2.27-.89-.53-1.88-.79-2.99-.79-1.9,0-3.43,.76-4.58,2.29-1.16,1.53-1.74,3.69-1.74,6.47s.54,5.04,1.61,6.69,2.73,2.48,4.97,2.48c1.04,0,2.03-.22,2.98-.67,.95-.44,1.88-1.08,2.79-1.92l2.33,2.96c-1.21,1.13-2.5,1.98-3.88,2.53-1.38,.55-2.87,.83-4.47,.83Z"/>
        <path class="cls-1" d="M540.45,25.47c-3.28,0-5.85-1.07-7.71-3.2-1.86-2.13-2.79-5.29-2.79-9.48,0-2.37,.33-4.37,.98-6.01,.65-1.64,1.5-2.96,2.53-3.96s2.21-1.72,3.51-2.16c1.31-.44,2.6-.67,3.88-.67,1.38,0,2.69,.23,3.94,.68,1.24,.46,2.34,1.18,3.29,2.18s1.7,2.32,2.26,3.96c.55,1.64,.83,3.63,.83,5.97,0,4.21-.98,7.38-2.94,9.5-1.96,2.12-4.55,3.18-7.78,3.18Zm.26-3.73c1.11,0,2.04-.25,2.79-.76,.75-.5,1.36-1.17,1.81-2,.46-.83,.78-1.77,.96-2.83,.19-1.06,.28-2.14,.28-3.25,0-.94-.09-1.94-.26-3.01-.17-1.07-.47-2.06-.91-2.96-.43-.9-1.04-1.65-1.81-2.24-.78-.59-1.76-.89-2.94-.89-1.11,0-2.05,.25-2.83,.76-.78,.51-1.4,1.17-1.87,2-.47,.83-.81,1.77-1.04,2.83s-.33,2.13-.33,3.22,.08,2.13,.24,3.22c.16,1.08,.47,2.06,.92,2.94,.46,.88,1.08,1.59,1.88,2.14s1.83,.83,3.09,.83Z"/>
        <path class="cls-1" d="M557.61,.44h5.03l6.14,16.05h.07l6.29-16.05h4.95l1.33,24.59h-4.29l-.92-16.93h-.07l-5.69,14.16h-3.4l-5.55-14.01h-.07l-.92,16.79h-4.29l1.41-24.59Z"/>
      </g>
    </g>
  </g>
</svg>